<?xml version="1.0" encoding="UTF-8" standalone="no"?>
<svg width="100px" height="100px" viewBox="0 0 100 100" version="1.1" xmlns="http://www.w3.org/2000/svg" xmlns:xlink="http://www.w3.org/1999/xlink">
    <!-- Generator: Sketch 46.2 (44496) - http://www.bohemiancoding.com/sketch -->
    <title>donut-opponent</title>
    <desc>Created with Sketch.</desc>
    <defs></defs>
    <g id="Page-1" stroke="none" stroke-width="1" fill="none" fill-rule="evenodd">
        <g id="Dribble" transform="translate(-610.000000, -335.000000)">
            <g id="donut-opponent" transform="translate(660.000000, 385.000000) scale(-1, 1) translate(-660.000000, -385.000000) translate(610.000000, 335.000000)">
                <path d="M50,100 C22.3857625,100 0,77.6142375 0,50 C0,22.3857625 22.3857625,0 50,0 C77.6142375,0 100,22.3857625 100,50 C100,77.6142375 77.6142375,100 50,100 Z M51,64 C59.2842712,64 66,57.2842712 66,49 C66,40.7157288 59.2842712,34 51,34 C42.7157288,34 36,40.7157288 36,49 C36,57.2842712 42.7157288,64 51,64 Z" id="Combined-Shape" fill="#9B681A"></path>
                <path d="M51.4788623,83.5925652 C49.0098851,86.300652 45.4533945,88 41.5,88 C34.0441559,88 28,81.9558441 28,74.5 C28,73.273211 28.1636371,72.0846414 28.470275,70.9549277 C26.7350945,72.8277504 24.254444,74 21.5,74 C16.2532949,74 12,69.7467051 12,64.5 C12,61.8751936 13.0645027,59.499015 14.7853445,57.7796279 C10.7088143,55.2131616 8,50.6729196 8,45.5 C8,37.4918711 14.4918711,31 22.5,31 C23.7465865,31 24.9564315,31.1573086 26.1107671,31.4531578 C24.7776473,29.4651843 24,27.0734068 24,24.5 C24,17.5964406 29.5964406,12 36.5,12 C38.5090884,12 40.4074719,12.4739842 42.0894282,13.3162304 C45.0186495,10.0528294 49.2695928,8 54,8 C61.3494123,8 67.5414761,12.9551982 69.4174989,19.7069021 C71.0323653,19.246498 72.7373963,19 74.5,19 C84.7172679,19 93,27.2827321 93,37.5 C93,42.0710732 91.3421684,46.2549391 88.5949661,49.4831368 C90.1289101,52.3131468 91,55.5548464 91,59 C91,70.045695 82.045695,79 71,79 C70.3221668,79 69.6522093,78.9662797 68.9917137,78.9004251 C68.7818626,83.9614129 64.6125626,88 59.5,88 C56.1270025,88 53.1645751,86.2421402 51.4788623,83.5925652 Z M54.2569079,49.6593622 C62.6722828,49.6593622 65.8871191,56.7946241 65.9974314,52.0819445 C66.1077437,47.3692648 62.6722828,39 54.2569079,39 C45.8415331,39 37.8025172,46.640976 38.0036982,52.0819445 C38.2048793,57.5229129 45.8415331,49.6593622 54.2569079,49.6593622 Z" id="Combined-Shape" fill="#603C05"></path>
                <g id="eye" transform="translate(33.000000, 26.000000)">
                    <ellipse id="Oval-11" fill="#060605" cx="9" cy="9" rx="4" ry="2"></ellipse>
                    <path d="M13,9 C9.39115084,7.91766827 6.85160006,6.88641827 5.38134766,5.90625 C3.91109525,4.92608173 2.45064603,3.29066506 1,1" id="Line-2" stroke="#060605" stroke-width="2" stroke-linecap="square"></path>
                </g>
                <g id="eye-copy" transform="translate(68.500000, 31.500000) scale(-1, 1) translate(-68.500000, -31.500000) translate(62.000000, 26.000000)">
                    <ellipse id="Oval-11" fill="#060605" cx="9" cy="9" rx="4" ry="2"></ellipse>
                    <path d="M13,9 C9.39115084,7.91766827 6.85160006,6.88641827 5.38134766,5.90625 C3.91109525,4.92608173 2.45064603,3.29066506 1,1" id="Line-2" stroke="#060605" stroke-width="2" stroke-linecap="square"></path>
                </g>
            </g>
        </g>
    </g>
</svg>