<?xml version="1.0" encoding="UTF-8" standalone="no"?>
<svg width="86px" height="87px" viewBox="0 0 86 87" version="1.1" xmlns="http://www.w3.org/2000/svg" xmlns:xlink="http://www.w3.org/1999/xlink">
    <!-- Generator: Sketch 46.2 (44496) - http://www.bohemiancoding.com/sketch -->
    <title>icecream-opponent</title>
    <desc>Created with Sketch.</desc>
    <defs>
        <linearGradient x1="92.3543344%" y1="50%" x2="7.80435812%" y2="50%" id="linearGradient-1">
            <stop stop-color="#66C9EA" offset="0%"></stop>
            <stop stop-color="#E3EFF2" stop-opacity="0.723731884" offset="53.0970982%"></stop>
            <stop stop-color="#66C9EA" offset="100%"></stop>
        </linearGradient>
        <path d="M92,53 L81.324987,94.834107 C81.324987,97.611369 71.0819983,99 50.5960208,99 C30.1100434,99 19.8670547,97.611369 19.8670547,94.834107 L10,53 L92,53 Z" id="path-2"></path>
    </defs>
    <g id="Page-1" stroke="none" stroke-width="1" fill="none" fill-rule="evenodd">
        <g id="Dribble" transform="translate(-615.000000, -170.000000)">
            <g id="icecream-opponent" transform="translate(659.500000, 208.000000) scale(-1, 1) translate(-659.500000, -208.000000) translate(609.000000, 158.000000)">
                <path d="M73,49 C73,30.2223185 57.5538239,15 38.5,15 C19.4461761,15 4,30.2223185 4,49 L73,49 Z" id="Path-Copy" fill="#EE9EED" transform="translate(38.500000, 32.000000) rotate(-30.000000) translate(-38.500000, -32.000000) "></path>
                <path d="M39.3327334,36.9695582 C39.7897984,37.677472 40.3882003,25.8127589 42.6041737,24.9074484 C44.8201472,24.002138 47.0743417,23.2102616 51.10224,19.8479579 C55.1301383,16.4856541 61.529413,11 59.6684009,11 C57.8073889,11 50.5283561,15.6114246 48.1118711,17.1416183 C45.6953861,18.6718119 42.6124157,15.7353973 40.5975551,21.7995471 C38.5826945,27.8636969 38.8756683,36.2616444 39.3327334,36.9695582 Z" id="Path-2-Copy" fill="#D11B7B" transform="translate(49.500000, 24.000000) scale(-1, -1) rotate(267.000000) translate(-49.500000, -24.000000) "></path>
                <path d="M31.9808788,33 C32.171593,26.5977109 32.9861402,23.0900766 34.4245201,22.477097 C36.58209,21.5576276 35.8575595,19.833258 39.7792997,16.4183681 C43.7010399,13.0034783 53.5925491,6 51.7805854,6 C49.9686216,6 42.8814329,10.6835469 40.5286361,12.2376726 C38.1758393,13.7917983 33.9426363,16.3181045 31.9808788,22.477097 C30.6730404,26.5830921 30.6730404,30.0907264 31.9808788,33 Z" id="Path-2-Copy-2" fill="#FDCBE6" transform="translate(41.500000, 19.500000) scale(1, -1) rotate(-119.000000) translate(-41.500000, -19.500000) "></path>
                <path d="M14.9808788,55 C15.171593,48.5977109 15.9861402,45.0900766 17.4245201,44.477097 C19.58209,43.5576276 18.8575595,41.833258 22.7792997,38.4183681 C26.7010399,35.0034783 36.5925491,28 34.7805854,28 C32.9686216,28 25.8814329,32.6835469 23.5286361,34.2376726 C21.1758393,35.7917983 16.9426363,38.3181045 14.9808788,44.477097 C13.6730404,48.5830921 13.6730404,52.0907264 14.9808788,55 Z" id="Path-2-Copy-3" fill="#FDCBE6"></path>
                <path d="M18.3327334,42.9695582 C18.7897984,43.677472 19.3882003,31.8127589 21.6041737,30.9074484 C23.8201472,30.002138 26.0743417,29.2102616 30.10224,25.8479579 C34.1301383,22.4856541 40.529413,17 38.6684009,17 C36.8073889,17 29.5283561,21.6114246 27.1118711,23.1416183 C24.6953861,24.6718119 21.6124157,21.7353973 19.5975551,27.7995471 C17.5826945,33.8636969 17.8756683,42.2616444 18.3327334,42.9695582 Z" id="Path-2" fill="#D11B7B"></path>
                <path d="M97,50 C97,31.2223185 81.5538239,16 62.5,16 C43.4461761,16 28,31.2223185 28,50 L97,50 Z" id="Path-Copy-2" fill="#9EEEA3" transform="translate(62.500000, 33.000000) rotate(18.000000) translate(-62.500000, -33.000000) "></path>
                <polygon id="Rectangle" fill="#372202" points="80 27 85 27.9238095 84.1435788 32 80 32"></polygon>
                <polygon id="Rectangle-Copy-3" fill="#372202" transform="translate(82.500000, 40.500000) rotate(-33.000000) translate(-82.500000, -40.500000) " points="80 38 85 38.9238095 84.1435788 43 80 43"></polygon>
                <polygon id="Rectangle-Copy-4" fill="#372202" transform="translate(90.500000, 43.000000) rotate(-33.000000) translate(-90.500000, -43.000000) " points="88 41.2227987 91.7636731 40 93 42.1054435 92.1435788 46 88 46"></polygon>
                <polygon id="Rectangle-Copy" fill="#372202" points="68 20 71.534614 20 74 22.052927 73.1888365 26 68.8586444 24.574579"></polygon>
                <polygon id="Rectangle-Copy-6" fill="#372202" points="70 27 73.534614 27 76 29.052927 75.1888365 33 70.8586444 31.574579"></polygon>
                <polygon id="Rectangle-Copy-2" fill="#372202" transform="translate(57.000000, 21.000000) scale(-1, 1) translate(-57.000000, -21.000000) " points="54 18 57.534614 18 60 20.052927 59.1888365 24 54.8586444 22.574579"></polygon>
                <polygon id="Rectangle-Copy-5" fill="#372202" transform="translate(46.000000, 21.000000) scale(-1, 1) rotate(54.000000) translate(-46.000000, -21.000000) " points="43 18 46.534614 18 49 20.052927 48.1888365 24 43.8586444 22.574579"></polygon>
                <path d="M88,54 C88,35.7746033 73.0015391,21 54.5,21 C35.9984609,21 21,35.7746033 21,54 L88,54 Z" id="Path" fill="#E9E8CF"></path>
                <g id="Polygon">
                    <use fill="#4ABCED" xlink:href="#path-2"></use>
                    <use fill="url(#linearGradient-1)" xlink:href="#path-2"></use>
                </g>
                <path d="M11,52.5 L93,52.5" id="Line" stroke="#FFFFFF" stroke-width="3" stroke-linecap="round"></path>
                <path d="M51,50 C51,55.0722369 53.0147186,62 55.5,62 C57.9852814,62 60,55.0722369 60,50 L51,50 Z" id="Oval-7" fill="#E9E8CF"></path>
                <path d="M63,50 C63,55.0722369 65.0147186,62 67.5,62 C69.9852814,62 72,55.0722369 72,50 L63,50 Z" id="Oval-7-Copy" fill="#E9E8CF"></path>
                <path d="M39,36 C39,37.7240742 43.6726563,45.1748975 48,44.9968623 C52.3273437,44.8188272 56,40.5124681 56,38.7883939 L39,36 Z" id="Oval-6" fill="#060605"></path>
                <path d="M63,39.0503201 C63,40.7012104 66.7021193,45.1657278 71.0641782,44.9952499 C75.4262371,44.824772 79,37.6508903 79,36 L63,39.0503201 Z" id="Oval-6-Copy-4" fill="#060605"></path>
            </g>
        </g>
    </g>
</svg>