<?xml version="1.0" encoding="UTF-8" standalone="no"?>
<svg width="98px" height="84px" viewBox="0 0 98 84" version="1.1" xmlns="http://www.w3.org/2000/svg" xmlns:xlink="http://www.w3.org/1999/xlink">
    <!-- Generator: Sketch 46.2 (44496) - http://www.bohemiancoding.com/sketch -->
    <title>pie-rest</title>
    <desc>Created with Sketch.</desc>
    <defs>
        <radialGradient cx="54.314667%" cy="58.6070674%" fx="54.314667%" fy="58.6070674%" r="193.131618%" gradientTransform="translate(0.543147,0.586071),scale(0.454545,1.000000),rotate(66.509117),translate(-0.543147,-0.586071)" id="radialGradient-1">
            <stop stop-color="#E6C28B" offset="0%"></stop>
            <stop stop-color="#BD760A" offset="100%"></stop>
        </radialGradient>
        <path d="M19,18 C19,15.2385763 16.5375661,13 13.5,13 C10.4624339,13 8,15.2385763 8,18 L19,18 Z" id="path-2"></path>
        <path d="M11,26 C11,23.2385763 8.53756612,21 5.5,21 C2.46243388,21 0,23.2385763 0,26 L11,26 Z" id="path-3"></path>
        <path d="M28,12 C28,9.23857625 25.5375661,7 22.5,7 C19.4624339,7 17,9.23857625 17,12 L28,12 Z" id="path-4"></path>
        <path d="M38,9 C38,6.23857625 35.5375661,4 32.5,4 C29.4624339,4 27,6.23857625 27,9 L38,9 Z" id="path-5"></path>
        <path d="M49,7 C49,4.23857625 46.5375661,2 43.5,2 C40.4624339,2 38,4.23857625 38,7 L49,7 Z" id="path-6"></path>
        <radialGradient cx="57.6763731%" cy="68.9989481%" fx="57.6763731%" fy="68.9989481%" r="72.4870689%" gradientTransform="translate(0.576764,0.689989),scale(0.843750,1.000000),rotate(-110.886323),scale(1.000000,1.178347),translate(-0.576764,-0.689989)" id="radialGradient-7">
            <stop stop-color="#DFAC5E" offset="0%"></stop>
            <stop stop-color="#DFB473" offset="100%"></stop>
        </radialGradient>
        <path d="M100,42.1695804 L100,86 L9.81818182,70.7447169 C6.60488873,70.2011518 4,67.1645618 4,63.9623033 L4,29.8978678 C4,28.6378505 4.40330115,27.5399287 5.08827746,26.7047363 L5,26.68865 C14.656652,14.2986316 31.0107055,5 47.9726271,5 L100,38.9630854 L100,42.1695804 Z M100,43.2662149 L100,44 L12.7790755,28.10619 C10.5713242,28.5591504 9,30.4210742 9,32.9162896 L9,62.7438401 C9,65.9581428 11.6074936,69.0061539 14.824,69.5517635 L100,84 L100,43.2662149 Z" id="path-8"></path>
    </defs>
    <g id="Page-1" stroke="none" stroke-width="1" fill="none" fill-rule="evenodd">
        <g id="Dribble" transform="translate(-50.000000, -11.000000)">
            <g id="pie-rest" transform="translate(48.000000, 9.000000)">
                <g id="curls">
                    <g id="Oval-2" transform="translate(13.500000, 15.500000) rotate(322.000000) translate(-13.500000, -15.500000) ">
                        <use fill="#E6C28B" xlink:href="#path-2"></use>
                        <use fill="url(#radialGradient-1)" xlink:href="#path-2"></use>
                    </g>
                    <g id="Oval-2-Copy-4" transform="translate(5.500000, 23.500000) rotate(311.000000) translate(-5.500000, -23.500000) ">
                        <use fill="#E6C28B" xlink:href="#path-3"></use>
                        <use fill="url(#radialGradient-1)" xlink:href="#path-3"></use>
                    </g>
                    <g id="Oval-2-Copy" transform="translate(22.500000, 9.500000) rotate(331.000000) translate(-22.500000, -9.500000) ">
                        <use fill="#E6C28B" xlink:href="#path-4"></use>
                        <use fill="url(#radialGradient-1)" xlink:href="#path-4"></use>
                    </g>
                    <g id="Oval-2-Copy-2" transform="translate(32.500000, 6.500000) rotate(342.000000) translate(-32.500000, -6.500000) ">
                        <use fill="#E6C28B" xlink:href="#path-5"></use>
                        <use fill="url(#radialGradient-1)" xlink:href="#path-5"></use>
                    </g>
                    <g id="Oval-2-Copy-3" transform="translate(43.500000, 4.500000) rotate(-8.000000) translate(-43.500000, -4.500000) ">
                        <use fill="#E6C28B" xlink:href="#path-6"></use>
                        <use fill="url(#radialGradient-1)" xlink:href="#path-6"></use>
                    </g>
                </g>
                <g id="filling" transform="translate(8.000000, 21.000000)" fill="#93081D">
                    <path d="M5.8481821,0.100261468 L92,20.93002 L91.3778454,65 L5.8481821,49.4818526 C2.61832031,48.8321142 0,45.2023949 0,41.3746476 L0,5.85455573 C0,2.0268084 2.61832031,-0.549476892 5.8481821,0.100261468 Z" id="piefilling"></path>
                </g>
                <g id="Combined-Shape">
                    <use fill="#E6C28B" xlink:href="#path-8"></use>
                    <use fill="url(#radialGradient-7)" xlink:href="#path-8"></use>
                </g>
                <path d="M26.5,22 C28.0726616,25.3333333 30.454172,27 33.6445312,27 C36.8348905,27 39.4533801,25.3333333 41.5,22" id="Line-5" stroke="#060605" stroke-width="2" stroke-linecap="round" transform="translate(34.000000, 24.500000) rotate(-32.000000) translate(-34.000000, -24.500000) "></path>
                <path d="M46.5,17 C48.0726616,20.3333333 50.454172,22 53.6445312,22 C56.8348905,22 59.4533801,20.3333333 61.5,17" id="Line-5-Copy" stroke="#060605" stroke-width="2" stroke-linecap="round" transform="translate(54.000000, 19.500000) rotate(-32.000000) translate(-54.000000, -19.500000) "></path>
            </g>
        </g>
    </g>
</svg>