<?xml version="1.0" encoding="UTF-8" standalone="no"?>
<svg width="102px" height="102px" viewBox="0 0 102 102" version="1.1" xmlns="http://www.w3.org/2000/svg" xmlns:xlink="http://www.w3.org/1999/xlink">
    <!-- Generator: Sketch 46.2 (44496) - http://www.bohemiancoding.com/sketch -->
    <title>question</title>
    <desc>Created with Sketch.</desc>
    <defs>
        <rect id="path-1" x="0" y="0" width="102" height="102" rx="8"></rect>
        <filter x="-8.3%" y="-8.3%" width="116.7%" height="116.7%" filterUnits="objectBoundingBox" id="filter-2">
            <feGaussianBlur stdDeviation="8.5" in="SourceAlpha" result="shadowBlurInner1"></feGaussianBlur>
            <feOffset dx="0" dy="0" in="shadowBlurInner1" result="shadowOffsetInner1"></feOffset>
            <feComposite in="shadowOffsetInner1" in2="SourceAlpha" operator="arithmetic" k2="-1" k3="1" result="shadowInnerInner1"></feComposite>
            <feColorMatrix values="0 0 0 0 0.0194836335   0 0 0 0 0.208623422   0 0 0 0 0.284279337  0 0 0 1 0" type="matrix" in="shadowInnerInner1"></feColorMatrix>
        </filter>
    </defs>
    <g id="Page-1" stroke="none" stroke-width="1" fill="none" fill-rule="evenodd">
        <g id="Dribble" transform="translate(-172.000000, -486.000000)">
            <g id="question" transform="translate(172.000000, 486.000000)">
                <g id="square">
                    <use fill="#9A9FA1" fill-rule="evenodd" xlink:href="#path-1"></use>
                    <use fill="black" fill-opacity="1" filter="url(#filter-2)" xlink:href="#path-1"></use>
                    <rect stroke="#023C53" stroke-width="1" x="0.5" y="0.5" width="101" height="101" rx="8"></rect>
                </g>
                <g id="question-mark" transform="translate(20.000000, 5.000000)" fill="#023C53">
                    <circle id="Oval-13" cx="32.5" cy="87.5" r="7.5"></circle>
                    <path d="M40.1103478,62.9629572 C49.4933432,53.3519655 64,45.711262 64,31.5 C64,14.1030304 49.8969696,0 32.5,0 C15.1030304,0 1,15.6030304 1,33 C1,31.9755859 2.83398437,39.4165039 9.09960937,39.2226563 C15.3652344,39.0288086 17,33.8547925 17,33 C17,24.7157288 23.7157288,18 32,18 C40.2842712,18 47,24.7157288 47,33 C47,39.2311588 38.1808443,43.2120596 34.0598312,47.636176 L32.8559899,48.4114142 L32.8559899,48.4114142 C27.6012476,51.7953132 24.5038741,57.6852137 24.6938477,63.932373 L24.9008817,70.7405574 C24.9663129,72.8922196 26.2809947,74.8079301 28.2651432,75.642847 L28.2651436,75.6428461 C30.1316923,76.4282778 31.7236497,76.7909814 33.0410156,76.730957 C34.1513071,76.6803678 35.3486452,76.3848683 36.6330301,75.8444585 C38.6731961,74.9860509 40.0000091,72.9883143 40.0000091,70.7749139 L40,70.7749139 C40,67.5537365 40,65.0475478 40,63.2563477 C40.039781,63.1655539 40.0765636,63.0677571 40.1103478,62.9629572 Z" id="Combined-Shape"></path>
                </g>
            </g>
        </g>
    </g>
</svg>